<svg xmlns="http://www.w3.org/2000/svg" version="1.1" xmlns:xlink="http://www.w3.org/1999/xlink" xmlns:svgjs="http://svgjs.com/svgjs" width="1440" height="560" preserveAspectRatio="none" viewBox="0 0 1440 560">
    <g mask="url(&quot;#SvgjsMask1000&quot;)" fill="none">
        <rect width="1440" height="560" x="0" y="0" fill="#1e3266"></rect>
        <path d="M1464 560L0 560 L0 327.12Q50.57 257.69, 120 308.26Q207.39 275.65, 240 363.05Q257.85 308.9, 312 326.76Q326.4 269.16, 384 283.57Q426.14 253.71, 456 295.85Q521.75 241.6, 576 307.34Q659.38 270.72, 696 354.1Q766.23 304.33, 816 374.56Q821.34 307.89, 888 313.23Q941.7 246.94, 1008 300.64Q1070.4 291.04, 1080 353.44Q1125.24 326.68, 1152 371.92Q1161.15 309.08, 1224 318.23Q1271.73 245.96, 1344 293.69Q1411.11 240.8, 1464 307.91z" fill="#182f5d"></path>
        <path d="M1512 560L0 560 L0 399.69Q19.18 346.87, 72 366.04Q158.28 332.32, 192 418.6Q245.45 352.05, 312 405.5Q347.58 321.08, 432 356.66Q501.31 305.97, 552 375.28Q593.13 344.4, 624 385.53Q644.88 334.41, 696 355.3Q762.32 301.62, 816 367.93Q914.89 346.83, 936 445.72Q948.6 338.32, 1056 350.91Q1097.33 320.24, 1128 361.56Q1200.28 361.84, 1200 434.11Q1265.9 380.01, 1320 445.92Q1336.76 390.68, 1392 407.43Q1463.55 358.98, 1512 430.52z" fill="#25467d"></path>
        <path d="M1560 560L0 560 L0 479.17Q35.11 394.28, 120 429.4Q169.23 406.63, 192 455.85Q279.69 423.55, 312 511.24Q335.69 414.93, 432 438.62Q486.41 373.03, 552 427.45Q642.45 397.9, 672 488.36Q721.66 418.02, 792 467.68Q807.55 411.24, 864 426.79Q935.36 378.15, 984 449.51Q1030.37 423.88, 1056 470.25Q1097.79 440.04, 1128 481.84Q1134.84 416.68, 1200 423.52Q1267.26 370.77, 1320 438.03Q1389.48 387.51, 1440 456.99Q1519.22 416.21, 1560 495.42z" fill="#356cb1"></path>
        <path d="M1488 560L0 560 L0 515.93Q31.91 475.84, 72 507.75Q158.13 473.88, 192 560.02Q217.49 465.5, 312 490.99Q353.9 460.89, 384 502.79Q460.82 507.61, 456 584.43Q486.09 494.52, 576 524.61Q647.06 475.67, 696 546.73Q743.58 522.31, 768 569.89Q791.13 473.02, 888 496.16Q968.86 505.01, 960 585.87Q978.02 483.89, 1080 501.92Q1123.99 473.91, 1152 517.91Q1195.09 489, 1224 532.08Q1264.68 452.76, 1344 493.45Q1393.88 471.33, 1416 521.21Q1461.76 494.98, 1488 540.74z" fill="white"></path>
    </g>
    <defs>
        <mask id="SvgjsMask1000">
            <rect width="1440" height="560" fill="#ffffff"></rect>
        </mask>
    </defs>
</svg>